<?xml version="1.0" encoding="utf-8"?>
<!-- Generator: Adobe Illustrator 28.3.0, SVG Export Plug-In . SVG Version: 6.00 Build 0)  -->
<svg version="1.1" id="レイヤー_1" xmlns="http://www.w3.org/2000/svg" xmlns:xlink="http://www.w3.org/1999/xlink" x="0px"
	 y="0px" viewBox="0 0 1417 241.9" style="enable-background:new 0 0 1417 241.9;" xml:space="preserve">
<style type="text/css">
	.st0{display:none;}
	.st1{font-family:'HanziPenSC-W3-GBpc-EUC-H';}
	.st2{font-size:250px;}
</style>
<text transform="matrix(1 0 0 1 1.8533 217.3848)" class="st0 st1 st2">HAYSHI JIRO</text>
<g>
	<path d="M143.9,79.1c-7,48-10.5,88-10.5,120.5c0,3.8,0,8.2,0.2,13.8c0.2,5.2,0.5,8.2,0.5,9.2c-1.2,5.8-4,9-8,10
		c-4.2-0.5-7-2.5-8.2-6c-1-2.8-1.2-8-1.2-15.8c0-19.5,1-40.8,3.2-64.2c0-0.8,1-7.8,2.5-21.3c-25.5,6.8-49.5,10.8-72.5,12
		c-1,19.2-2.8,47.8-4.8,85.5c-0.5,4.5-3.5,7.5-8.5,9c-4.5-1-6.7-3.8-7-8.5c0-3.8,0.2-10.5,0.8-20.5c0.5-12.5,1-20.5,1.2-24.2
		c0.5-13.5,1.2-27,2.2-41c-4.2,0-9.2-0.2-15.2-0.8c-8-0.2-11.8-3-11.8-8c0-5.5,2-8.3,6.3-8.3c4.5,0.5,12,1,22,1.5
		c3.5-37.5,10-69,19-94.2c3.5-10,7-15,10.8-15c5.2,0,8,2.8,8,7.8c0,2.2-2.2,9.5-6.5,21.8c-1.5,4.2-3.5,12-6.3,23.5
		c-3.5,15.8-6.5,34.5-8.8,56.2c27.5-1.8,51.8-6.2,72.8-13.5c3-24.8,6.5-48.2,10.7-70.8c0.5-2.8,3-4.8,7.5-5.8c5,1,7.5,3.8,7.5,8
		C148.9,46.9,146.9,59.9,143.9,79.1z"/>
	<path d="M315.6,233.1c-2,0-4.5-3-7-8.8c-3-5.8-4.2-9.8-4.2-12.2c0-1,0.2-2.2,1-3.8c-1.5-6-4-14.8-7-26.5
		c-13.2-3.8-28.8-5.8-46.8-5.8c-8.8,0-21,1-37,2.5c-3,14.5-4.2,25.5-4.2,32.5c0,2.8,0.2,5.8,0.8,9c-1.5,4-4,6-7.2,6
		c-6.5,0-9.5-4.8-9.5-13.8c0.5-3.8,1.2-8.8,2.2-15.2c0.5-3.5,1.5-9.2,3-17c-6,1-13.2,2.2-21.5,3.2c-5.5,0-8-2.2-8-7.2
		c0-4.5,3-7,9.2-8c3.5-0.5,11.2-1.5,23.2-2.8c7-30.8,19.8-69.3,38.5-115.3c4.5-11.8,8.5-17.8,12-17.8c4.5,0,9,5.8,13.8,16.8
		c26.2,63,44.8,118.8,55.5,167.8c1,5.5,1.8,8.8,1.8,9.8C324.1,230.9,321.1,233.1,315.6,233.1z M280.9,124.9
		c-9.8-28.5-19-51.5-27.5-69c-14.8,36-26.5,71.8-35.5,107.8c16.8-1.5,28.5-2.2,35.2-2.2c12.5,0,26,1.5,40.8,4.2
		C289.4,150.6,284.9,137.1,280.9,124.9z"/>
	<path d="M459.6,60.1c-1.8,1.8-4.5,6-8.2,12.5c-25.5,45.2-44.5,89.5-56.8,132.5c-1.5,5.5-2.2,8.5-2.2,9.2c0,3,0.5,5.8,1.8,8.8
		c-0.2,6-3.2,9-8.8,9c-6,0-8.8-4.2-8.8-12.5c0-12.2,6-33.2,18-62.8c-4.8-9-9.2-18.5-13.8-29c-6.5-15-11.5-26-15.2-33.5
		c-6.5-13-13.2-24-20.2-32.7c-4-4.8-6-8.5-6-11.5c0-2,0.8-3.8,2.5-5.2c1.5-1.5,3-2.5,5-2.5c3,0,7,3.2,11.5,9.5
		c15,21.5,29.8,50.2,44,86.8c14.8-35,27.8-61.5,38.8-79.8c7.5-12,13.2-18.2,17.8-18.2c5,0,7.8,2.8,7.8,8
		C466.6,51.4,464.1,55.1,459.6,60.1z"/>
	<path d="M565.8,59.9c-14.2,3.5-27,9-38.2,16.2c-15.5,10.2-23.2,21.5-23.2,33.8c0,6.5,2.5,11.5,7.8,15.2c2,1.8,8,4.8,18,9.3
		c12.2,5.5,20.5,10.2,25,14.2c7,6.8,10.8,15.8,10.8,26.8c0,14-7,26.2-21,36.2c-12.8,9-26,13.5-40,13.5c-13.5,0-20.2-3.5-20.2-10.5
		c0-2,0.8-3.8,2.2-5.8c1.5-1.8,3.2-2.8,5.5-2.8c1.5,0,3.5,0.5,6.5,1c3,1,5.2,1.2,6.8,1.2c9.5,0,19.2-3,29-9.5c10.5-7,16-15.2,16-25
		c0-6.2-2.2-11.2-6.8-15.2c-3-2-9.5-5.5-20-10.5c-12.5-5.5-20.2-10-23.8-13c-7.5-6.2-11-15-11-26.3c0-13,6.5-25.5,19.8-37.2
		c9.5-8.5,21.5-16,36.5-22c3-5.2,8-8,14.5-8c7.8,0,11.8,3.5,11.8,10.2C571.6,56.4,569.6,58.9,565.8,59.9z"/>
	<path d="M723.8,79.1c-7,48-10.5,88-10.5,120.5c0,3.8,0,8.2,0.2,13.8c0.2,5.2,0.5,8.2,0.5,9.2c-1.2,5.8-4,9-8,10
		c-4.2-0.5-7-2.5-8.2-6c-1-2.8-1.2-8-1.2-15.8c0-19.5,1-40.8,3.2-64.2c0-0.8,1-7.8,2.5-21.3c-25.5,6.8-49.5,10.8-72.5,12
		c-1,19.2-2.8,47.8-4.8,85.5c-0.5,4.5-3.5,7.5-8.5,9c-4.5-1-6.8-3.8-7-8.5c0-3.8,0.2-10.5,0.8-20.5c0.5-12.5,1-20.5,1.2-24.2
		c0.5-13.5,1.2-27,2.2-41c-4.2,0-9.2-0.2-15.2-0.8c-8-0.2-11.8-3-11.8-8c0-5.5,2-8.3,6.2-8.3c4.5,0.5,12,1,22,1.5
		c3.5-37.5,10-69,19-94.2c3.5-10,7-15,10.8-15c5.2,0,8,2.8,8,7.8c0,2.2-2.2,9.5-6.5,21.8c-1.5,4.2-3.5,12-6.2,23.5
		c-3.5,15.8-6.5,34.5-8.8,56.2c27.5-1.8,51.8-6.2,72.8-13.5c3-24.8,6.5-48.2,10.8-70.8c0.5-2.8,3-4.8,7.5-5.8c5,1,7.5,3.8,7.5,8
		C728.8,46.9,726.8,59.9,723.8,79.1z"/>
	<path d="M791.6,80.9l-10.2,81.3c-2.8,21.5-4,35.2-4,41c0,2.2,0.2,5.2,0.8,9c1.5,2,2.5,4.5,2.5,7.2c0,2-0.8,3.8-2,5.8
		c-1.5,1.5-3.2,2.5-4.8,2.5c-7.2,0-10.8-7-10.8-21c0-13.5,1.2-30.5,4-51.2l8.5-64c-4.2-2.5-6.2-5.2-6.2-8.8c0-8.2,2.2-18,6.8-29.2
		c4.5-11,8.8-16.8,12.5-16.8c5,0,7.5,3,7.5,9C796.1,46.1,794.6,57.9,791.6,80.9z"/>
	<path d="M1026.8,57.9c-6,2.2-19.3,5.8-39.8,10.5c7.5,26.2,11.5,51.8,11.5,76.8c0,20.8-4.8,39.5-13.8,56c-11,19.5-25.5,29.5-44,29.5
		c-13.5,0-23.2-4.8-28.8-14.2c-3.5-5.2-5-10.5-5-16c0-7,1-12.8,3.2-17.8c2-4.8,4.8-7.2,8.2-7.2c5,0,7.8,2.5,7.8,7.2
		c-3,8.5-4.2,14.2-4.2,17.2c0,4,1.8,7.5,5.5,10.2c3.5,3,7,4.5,11,4.5c15.5,0,27.2-8,35.2-24.2c6.2-12.5,9.5-28,9.5-46.2
		c0-20.5-3.8-45.3-11-74c-10.5,1.8-23,3.5-38,5c-8.8,1-14.2,1.5-16.8,1.5c-4.8,0-7-2.8-7-8.2c0-4.7,2.5-7.2,7.8-7.7
		c52.8-3.8,90.5-11.5,113.5-23c1.8-3,4.2-4.5,7.5-4.5c4.5,0,6.8,2.8,6.8,8C1046.1,47.6,1039.6,53.4,1026.8,57.9z"/>
	<path d="M1088.6,80.9l-10.2,81.3c-2.8,21.5-4,35.2-4,41c0,2.2,0.2,5.2,0.8,9c1.5,2,2.5,4.5,2.5,7.2c0,2-0.8,3.8-2,5.8
		c-1.5,1.5-3.2,2.5-4.8,2.5c-7.2,0-10.8-7-10.8-21c0-13.5,1.2-30.5,4-51.2l8.5-64c-4.2-2.5-6.2-5.2-6.2-8.8c0-8.2,2.2-18,6.8-29.2
		c4.5-11,8.8-16.8,12.5-16.8c5,0,7.5,3,7.5,9C1093.1,46.1,1091.6,57.9,1088.6,80.9z"/>
	<path d="M1195.3,137.4c-12.2,8.5-24.8,15-37.2,19.8c46,23.5,69.2,44.5,69.2,62.5c0,5.5-2.5,8.2-7,8.2c-4,0-6.2-3.2-7-9.2
		c-6.2-15.5-28.5-32-66.8-49c0.5,13.5,1,24.2,2,32.5c1,10,1.5,15,1.5,15c0,5.5-2.2,8.5-6.8,8.5c-4,0-6.5-2.8-7.5-8
		c-2-10.5-3-28.8-3-54.5h-2c-6.5,0-9.5-2.2-9.5-7.2c0-4.8,4-7.8,12-8.8c0.2-5.5,2.2-25.3,6-58.8c-6.5-1.5-9.8-4.8-9.8-9.8
		c0-3,2-7,6-11.5c8-8.7,17.5-16.2,28.2-22.5c12-6.5,22.8-10,32.8-10c10.5,0,19.8,4.5,27.8,13c7.5,8.8,11.5,18.7,11.5,29.7
		C1235.8,98.4,1222.3,118.4,1195.3,137.4z M1215.3,59.4c-5-4.8-10.5-7.2-16.2-7.2c-15.2,0-30.5,6-46,18c-1.8,18.2-3.8,43.2-6.2,75
		c12-2.8,24.5-8.5,37.8-17.3c25.5-16.5,38.2-33.5,38.2-51C1222.8,70.4,1220.3,64.4,1215.3,59.4z"/>
	<path d="M1388.8,191.4c-14.8,15.5-32.8,23-54,23c-19.8,0-37.5-6.2-53-18.8c-17-13.5-25.5-30.2-25.5-50.2c0-25,11.8-47.3,35.2-67.3
		c10.8-9,20-15,27.5-17.5c1.8-7,8-10.5,18.5-10.5c22.8,0,41,8.2,54.5,24.5c12.5,15.5,19,35.5,19,59.8
		C1411.1,156.9,1403.6,175.9,1388.8,191.4z M1383.6,89.1c-8.5-11-19-18-32-21.5c-0.5,0.2-2.5,0.5-5.5,1c-12.2,2.2-24,7.2-35.5,14.8
		c-11.5,7.8-20.8,17-27.8,27.5c-7.5,11.5-11,21.8-11,30.8c0,17.5,6.8,31.5,20.2,42c12,10,26.8,14.8,44,14.8c17,0,31.2-5.8,42.8-17.5
		c11-11.5,16.8-26.5,16.8-44.5C1395.6,116.1,1391.6,100.4,1383.6,89.1z"/>
</g>
</svg>
