<?xml version="1.0" encoding="UTF-8"?><svg id="_レイヤー_2" xmlns="http://www.w3.org/2000/svg" viewBox="0 0 261.2 49"><defs><style>.cls-1{fill:#000;stroke-width:0px;}</style></defs><g id="_レイヤー_1-2"><path class="cls-1" d="M10.9,14.4c-.7-1.6-1.4-3.4-2.1-5.2-.6,1.6-1.1,3-1.9,5.2h-3C2,8.8.8,4.4,0,.9L3.8.4c.5,2.9,1.1,5.2,1.9,8.9,1.2-3.1,1.7-4.5,2.3-6.3l2,.2c.7,2,1.1,3.8,2,6.2,1.2-4.3,1.9-6.9,2.6-9.4l3.5.7c-1.2,4.1-2.2,7.6-4.2,13.7h-3.1Z"/><path class="cls-1" d="M20.9,3.4c0-.8,0-1.5,0-2V.4c1.8,0,3.3,0,4.8,0s3,0,4.7,0l.3,3.2h-6.4c0,.8,0,1.6,0,2.4h6.1v3.1h-6c0,.6,0,1.2,0,1.9,2.2,0,4.2,0,6.6,0l-.4,3.2c-2.1,0-4.8,0-6.1,0h-3.5c0-.9-.1-7.3-.1-10.9Z"/><path class="cls-1" d="M34.3,14.3c0-3.3.1-10.1.1-13.9h0c1.3-.1,2.5-.2,3.5-.2,4.5,0,6.3,1.3,6.4,3.5s-.5,2.4-1.5,3.1c1.3.4,2.1,1.2,2.1,2.6s0,.1,0,.4c-.2,2.8-2.5,4.5-7.2,4.5h-3.5ZM37.7,9.1c0,.8,0,1.5,0,2.2,3,.3,4.1-.5,3.9-1.5,0-.7-1.6-.9-4-.7ZM37.8,3.1c0,1.1,0,2.2,0,3.4.2,0,.4,0,.5,0,2.2-.3,3.1-.5,3.1-2.1s-.7-1.4-3.6-1.3Z"/><path class="cls-1" d="M47.3,6.6c2.2,0,5.2,0,8.3,0v3.2c-3.2,0-6,0-8.3,0v-3.3Z"/><path class="cls-1" d="M58.6.6c1.2-.1,2.4-.2,3.4-.2,6.6,0,8.7,3.1,8.7,6.7s-2.7,7.4-10.3,7.4-1,0-1.5,0c0-3.6,0-9.5-.3-13.8ZM62.2,3.8c0,2.3,0,4.8.1,7.2,4.2-.4,4.8-2.1,4.8-4.1s-1.3-3.2-4.9-3.1Z"/><path class="cls-1" d="M73.7,3.4c0-.8,0-1.5,0-2V.4c1.8,0,3.3,0,4.8,0s3,0,4.7,0l.3,3.2h-6.4c0,.8,0,1.6,0,2.4h6.1v3.1h-6c0,.6,0,1.2,0,1.9,2.2,0,4.2,0,6.6,0l-.4,3.2c-2.1,0-4.8,0-6.1,0h-3.5c0-.9-.1-7.3-.1-10.9Z"/><path class="cls-1" d="M87.7,10c3.1,1.4,5.6,1.4,5.6.4s-.9-.7-2.8-1.6c-2.9-1.4-3.8-2.4-3.8-4.5S89.1.2,91.9.2s3,.4,4.4,1.4l-1.8,2.8c-2.9-1.8-4.2-1-4.2,0s.3.8,2,1.5c3.5,1.5,4.5,2.5,4.5,4.6s-2.4,3.9-5.3,3.9-3.4-.4-5-1.2l1.3-3.2Z"/><path class="cls-1" d="M100.1,3.1V.6l3.6-.3c0,3.2,0,9.8,0,14.1h-3.5c-.1-3.4-.1-7.9-.1-11.3Z"/><path class="cls-1" d="M107,7.5c0-3.9,2.7-7.2,7.2-7.3,2.1,0,3.6.8,4.9,2.3l-2.2,2.4c-.8-1-2-1.4-2.9-1.3-4.5.4-4.6,8.1.3,7.9,1.1,0,1.9-.7,2.1-2.1-1.1,0-2.2,0-3.1,0l-.3-2.6c2.2,0,5,0,6.8,0,0,.8.1,1.4.1,1.8,0,3.8-2.4,5.8-5.8,5.9-4.9,0-7.2-3.4-7.2-7Z"/><path class="cls-1" d="M123,13.6c0-3.1,0-10.2.2-13.3h3.5c1.3,2.2,3.9,5.8,5.8,8.7,0-3.1,0-6.7,0-8.7h3.5c0,2.9-.1,8.7-.2,14h-3.4c-2-2.8-3.9-5.5-5.9-8.2,0,2.6,0,5.4-.1,8.2h-3.4v-.8Z"/><path class="cls-1" d="M139.7,3.4c0-.8,0-1.5,0-2V.4c1.8,0,3.3,0,4.8,0s3,0,4.7,0l.3,3.2h-6.4c0,.8,0,1.6,0,2.4h6.1v3.1h-6c0,.6,0,1.2,0,1.9,2.2,0,4.2,0,6.6,0l-.4,3.2c-2.1,0-4.8,0-6.1,0h-3.5c0-.9-.1-7.3-.1-10.9Z"/><path class="cls-1" d="M153.1.6l3.5-.2c.5,0,1,0,1.6,0,5.2,0,6.2,2.4,6.2,4.9s-.7,3-2.1,3.9c.9,1.4,1.5,2.5,2.6,4.3l-3.3,1.2c-.9-1.8-1.5-2.9-2.4-4.4-.7.1-1.5.3-2.4.3,0,1.8.1,3,.2,3.9h-3.5c0-3.2-.4-11.7-.4-13.8ZM156.7,3.4c0,1.6,0,2.9.1,4.1,2.5-.3,4.3-.8,4.3-2.6s-1.5-1.8-4.4-1.6Z"/><path class="cls-1" d="M2.3,24.6l5.9.3c0,3.2,0,6.8,0,10.7,2.6-.1,7.1-.3,9.8-.4,0-3.5.1-7.1.1-10.5h5.8c-.1,8.7-.2,17.1-.2,24h-5.9c0-2.6,0-5.5,0-8.6-2.9,0-7,.2-9.8.4,0,2.7,0,5.4.1,8.1H2.5c-.1-6-.2-17.5-.2-24.1Z"/><path class="cls-1" d="M44.3,45c-2.6-.1-5.9,0-9,0-.4,1.3-.8,2.6-1.2,3.7h-5.9c2.4-7.3,5.9-17.3,8.5-24.3l6.6.4c2,6.4,6.1,18.1,8,23.9h-5.9c-.3-1-.7-2.3-1.1-3.7ZM36.9,39.8c1.9,0,3.9,0,5.8,0-.9-3-1.9-6.2-2.9-9.7-.8,2.6-1.8,6.1-2.9,9.7Z"/><path class="cls-1" d="M62.7,40.6c-3.6-4.7-7-9.3-9.3-13.2l5.5-2.8c1.5,2.7,4.3,7.5,6.7,10.7,3.1-4,5.1-6.6,8.1-10.6l4.7,3.4c-3.5,4.1-6.1,7.3-9.5,11.8,0,3.1,0,6.4.1,9h-6.1c-.1-2.5-.2-5.5-.1-8.2Z"/><path class="cls-1" d="M96.4,45c-2.6-.1-5.9,0-9,0-.4,1.3-.8,2.6-1.2,3.7h-5.9c2.4-7.3,5.9-17.3,8.5-24.3l6.6.4c2,6.4,6.1,18.1,8,23.9h-5.9c-.3-1-.7-2.3-1.1-3.7ZM89,39.8c1.9,0,3.9,0,5.8,0-.9-3-1.9-6.2-2.9-9.7-.8,2.6-1.8,6.1-2.9,9.7Z"/><path class="cls-1" d="M108.7,41.3c5.4,2.3,9.6,2.3,9.6.7s-1.5-1.2-4.8-2.7c-5-2.3-6.5-4.1-6.5-7.7s4.1-7.2,8.9-7.2,5.1.8,7.6,2.4l-3.1,4.8c-5-3.1-7.2-1.8-7.2,0s.5,1.3,3.3,2.6c5.9,2.6,7.7,4.4,7.7,7.8s-4.1,6.7-9.1,6.7-5.8-.7-8.6-2l2.2-5.4Z"/><path class="cls-1" d="M129.4,24.6l5.9.3c0,3.2,0,6.8,0,10.7,2.6-.1,7.1-.3,9.8-.4,0-3.5.1-7.1.1-10.5h5.8c-.1,8.7-.2,17.1-.2,24h-5.9c0-2.6,0-5.5,0-8.6-2.9,0-7,.2-9.8.4,0,2.7,0,5.4.1,8.1h-5.9c-.1-6-.2-17.5-.2-24.1Z"/><path class="cls-1" d="M158,29.5v-4.4l6.2-.5c0,5.4-.1,16.8,0,24.2h-6c-.2-5.8-.2-13.5-.2-19.3Z"/><path class="cls-1" d="M180.6,43c1.4,0,2.5,0,4.7-.3,1.9-.1,2.5-1,2.6-4.2,0-2.3.1-7,0-13.9l5.9.3c0,2.2,0,5.3,0,7.7,0,6.6-.3,11.8-1.9,13.9-1.6,2.1-4.5,2.5-8.1,2.5s-2,0-2.8,0l-.5-5.9Z"/><path class="cls-1" d="M200.4,29.5v-4.4l6.2-.5c0,5.4-.1,16.8,0,24.2h-6c-.2-5.8-.2-13.5-.2-19.3Z"/><path class="cls-1" d="M213.6,25.2l6-.4c.9,0,1.7-.1,2.7-.1,8.9,0,10.7,4.2,10.7,8.3s-1.2,5.1-3.7,6.6c1.5,2.4,2.6,4.4,4.4,7.4l-5.6,2c-1.6-3-2.6-5-4-7.5-1.2.3-2.6.4-4,.6.1,3.1.2,5.1.3,6.7h-6c-.1-5.4-.6-20.1-.8-23.6ZM219.7,30c0,2.7.1,5,.2,7.1,4.3-.5,7.3-1.4,7.3-4.4s-2.5-3.2-7.5-2.7Z"/><path class="cls-1" d="M236.6,36.9c0-6.9,4.4-12.3,11.9-12.3s12.6,5.3,12.6,12.3-5.3,12-12.6,12-11.9-4.6-11.9-12ZM255.3,36.9c0-5-2.8-6.9-6.8-6.9s-5.9,2.7-5.9,7.2,2.2,6.1,5.9,6.1,6.8-3.3,6.8-6.5Z"/></g></svg>